<?xml version="1.0" encoding="UTF-8"?>
<!DOCTYPE svg PUBLIC "-//W3C//DTD SVG 1.1//EN" "http://www.w3.org/Graphics/SVG/1.1/DTD/svg11.dtd">
<!-- Creator: CorelDRAW -->
<svg xmlns="http://www.w3.org/2000/svg" xml:space="preserve" width="6.82666in" height="6.82666in" style="shape-rendering:geometricPrecision; text-rendering:geometricPrecision; image-rendering:optimizeQuality; fill-rule:evenodd; clip-rule:evenodd"
viewBox="0 0 6.82666 6.82666"
 xmlns:xlink="http://www.w3.org/1999/xlink">
 <defs>
  <style type="text/css">
   <![CDATA[
    .fil4 {fill:none}
    .fil0 {fill:#616161}
    .fil5 {fill:#919191}
    .fil3 {fill:#A4A4A5}
    .fil8 {fill:#BBBBBC}
    .fil2 {fill:#BFBFBF}
    .fil1 {fill:#DEDEDE}
    .fil6 {fill:#B6B6B6;fill-rule:nonzero}
    .fil7 {fill:#C9C9C9;fill-rule:nonzero}
   ]]>
  </style>
 </defs>
 <g id="Layer_x0020_1">
  <metadata id="CorelCorpID_0Corel-Layer"/>
  <path class="fil0" d="M1.13599 1.74545l4.55468 0c0.0773504,0 0.147925,0.0315748 0.199295,0.0824331 0.0514331,0.0509252 0.0833661,0.121185 0.0833661,0.198476l0 2.77394c0,0.0772913 -0.0319291,0.147551 -0.0833661,0.198472 -0.051374,0.0508622 -0.121941,0.082437 -0.199295,0.082437l-4.55468 0c-0.0773504,0 -0.147925,-0.0315748 -0.199295,-0.0824331 -0.0514331,-0.0509252 -0.0833661,-0.121185 -0.0833661,-0.198476l0 -2.77394c0,-0.0772913 0.0319331,-0.147551 0.0833661,-0.198476 0.0513701,-0.0508583 0.121945,-0.0824331 0.199295,-0.0824331z"/>
  <path class="fil1" d="M1.13599 1.91211c-0.0309724,0 -0.0600787,0.0124646 -0.0820354,0.0342047 -0.0215394,0.0213268 -0.0339606,0.0496102 -0.0339606,0.0800394l0 2.77394c0,0.0304291 0.0124213,0.0587126 0.0339606,0.0800394 0.0219567,0.0217402 0.051063,0.0342047 0.0820354,0.0342047l4.55468 0c0.0309803,0 0.0600787,-0.0124724 0.0820394,-0.0342126 0.0215394,-0.0213268 0.0339567,-0.0496063 0.0339567,-0.0800315l0 -2.77394c0,-0.0304291 -0.0124213,-0.0587126 -0.0339606,-0.0800394 -0.0219567,-0.0217402 -0.051063,-0.0342047 -0.0820354,-0.0342047l-4.55468 0z"/>
  <path class="fil2" d="M1.02 4.64309l0 0.138831c0,0.0353268 0.0124213,0.0681614 0.0339606,0.0929213 0.0219567,0.0252362 0.051063,0.0397087 0.0820354,0.0397087l2.78713 0c0.0154606,-0.0341142 0.0235433,-0.069248 0.0235433,-0.10513 0,-0.326571 -0.668591,-0.591307 -1.49333,-0.591307 -0.678882,0 -1.25187,0.179394 -1.43334,0.424976z"/>
  <path class="fil3" d="M1.02 4.06666l0 0.71526c0,0.0353228 0.0124213,0.0681614 0.0339606,0.0929213 0.0219567,0.0252362 0.051063,0.0397087 0.0820354,0.0397087l0.725185 0c-0.167087,-0.530366 -0.463055,-0.778953 -0.841181,-0.84789z"/>
  <g id="_489322712">
   <rect id="_489323216" class="fil4" width="6.82666" height="6.82666"/>
   <rect id="_489322736" class="fil4" x="0.853331" y="0.853331" width="5.12" height="5.12"/>
  </g>
  <path class="fil3" d="M5.80667 4.62067l0 0.150295c0,0.0382441 -0.0157717,0.0737913 -0.043126,0.100598 -0.027878,0.0273228 -0.0648386,0.0429882 -0.104169,0.0429882l-3.53918 0c-0.0196299,-0.0369331 -0.4205,0.0304055 -0.0298937,-0.113811 1.01663,-0.37537 3.20639,-0.848598 3.71637,-0.180071z"/>
  <path class="fil5" d="M5.80667 4.06666l0 0.71526c0,0.111043 -0.059748,0.13263 -0.174882,0.13263l-1.09332 0c-0.211961,-0.257339 0.728173,-0.966843 1.2682,-0.84789z"/>
  <path class="fil6" d="M1.71854 2.46143c-0.00242126,0 -0.00482677,9.44882e-005 -0.00722047,0.000232283 -0.00628346,-0.081122 -0.0741063,-0.144992 -0.156843,-0.144992 -0.0827402,0 -0.150563,0.0638701 -0.156854,0.144992 -0.00238583,-0.000137795 -0.0047874,-0.000232283 -0.0072126,-0.000232283 -0.065374,0 -0.118362,0.0529882 -0.118362,0.118362 0,0.0653622 0.0529882,0.118354 0.118362,0.118354l0.32813 0c0.0653661,0 0.118362,-0.0529921 0.118362,-0.118354 0,-0.065374 -0.0529961,-0.118362 -0.118362,-0.118362z"/>
  <path class="fil7" d="M2.57284 2.56722c-0.0024252,0 -0.00483071,9.44882e-005 -0.00722047,0.00023622 -0.00628346,-0.081126 -0.0741102,-0.144996 -0.156846,-0.144996 -0.0827402,0 -0.150563,0.0638701 -0.156854,0.144996 -0.00238189,-0.000141732 -0.0047874,-0.00023622 -0.0072126,-0.00023622 -0.0653701,0 -0.118362,0.0529921 -0.118362,0.118362 0,0.0653661 0.0529921,0.118354 0.118362,0.118354l0.328134 0c0.0653661,0 0.118362,-0.0529882 0.118362,-0.118354 0,-0.0653701 -0.0529961,-0.118362 -0.118362,-0.118362z"/>
  <path class="fil6" d="M3.85218 2.48906c-0.00412205,0 -0.00820866,0.000161417 -0.0122717,0.000401575 -0.0106811,-0.137878 -0.125953,-0.246425 -0.266571,-0.246425 -0.140618,0 -0.255886,0.108547 -0.266579,0.246425 -0.00405118,-0.000240157 -0.0081378,-0.000401575 -0.0122559,-0.000401575 -0.111106,0 -0.201165,0.090063 -0.201165,0.201165 0,0.111091 0.0900591,0.20115 0.201165,0.20115l0.557677 0c0.111091,0 0.201157,-0.0900591 0.201157,-0.20115 0,-0.111102 -0.0900669,-0.201165 -0.201157,-0.201165z"/>
  <path class="fil7" d="M4.89497 2.42222c-0.00242126,0 -0.00482677,9.44882e-005 -0.00722047,0.00023622 -0.00628346,-0.081126 -0.0741063,-0.144992 -0.156846,-0.144992 -0.0827362,0 -0.150559,0.0638661 -0.15685,0.144992 -0.00238583,-0.000141732 -0.0047874,-0.00023622 -0.0072126,-0.00023622 -0.065374,0 -0.118362,0.0529921 -0.118362,0.118362 0,0.0653661 0.0529882,0.118358 0.118362,0.118358l0.32813 0c0.0653661,0 0.118362,-0.0529921 0.118362,-0.118358 0,-0.0653701 -0.0529961,-0.118362 -0.118362,-0.118362z"/>
  <circle class="fil8" cx="5.21665" cy="3.02881" r="0.254384"/>
 </g>
</svg>
